<svg id="Layer_1" data-name="Layer 1" xmlns="http://www.w3.org/2000/svg" viewBox="0 0 50 50"><defs><style>.cls-1{fill:#2ec4b6;}</style></defs><path class="cls-1" d="M30.64,14.5a3.18,3.18,0,1,0-3.18-3.18A3.19,3.19,0,0,0,30.64,14.5ZM13.94,24.84a8,8,0,0,0,0,15.9,8,8,0,1,0,0-15.9Zm0,13.52a5.57,5.57,0,0,1,0-11.14,5.57,5.57,0,1,1,0,11.14Zm9.23-15.91L27,18.64l1.28,1.27a11.12,11.12,0,0,0,8.11,3.34V20.07a7.91,7.91,0,0,1-5.73-2.39l-3-3a3.86,3.86,0,0,0-2.54-.95,2.66,2.66,0,0,0-2.23.95L18.4,19.11a3.14,3.14,0,0,0-1,2.23,2.68,2.68,0,0,0,1,2.23L23.49,28v8h3.18V26.11Zm13,2.39a8,8,0,1,0,7.95,8A7.88,7.88,0,0,0,36.21,24.84Zm0,13.52a5.57,5.57,0,1,1,5.56-5.57A5.64,5.64,0,0,1,36.21,38.36Z"/></svg>