<svg id="Layer_1" data-name="Layer 1" xmlns="http://www.w3.org/2000/svg" viewBox="0 0 50 50"><defs><style>.cls-1{fill:#2ec4b6;}</style></defs><path class="cls-1" d="M38.16,11.7a2.84,2.84,0,0,0-2.7-1.92H14.54a2.86,2.86,0,0,0-2.7,1.92l-4,11.4V38.31a1.91,1.91,0,0,0,1.9,1.91h1.91a1.91,1.91,0,0,0,1.9-1.91v-1.9H36.41v1.9a1.91,1.91,0,0,0,1.9,1.91h1.91a1.91,1.91,0,0,0,1.9-1.91V23.1Zm-23.62,19a2.86,2.86,0,1,1,2.85-2.86A2.85,2.85,0,0,1,14.54,30.71Zm20.92,0a2.86,2.86,0,1,1,2.85-2.86A2.85,2.85,0,0,1,35.46,30.71ZM11.69,21.2l2.85-8.56H35.46l2.85,8.56Z"/></svg>