<svg id="Layer_1" data-name="Layer 1" xmlns="http://www.w3.org/2000/svg" viewBox="0 0 23.33 22.17"><defs><style>.cls-1{fill:#2a2b30;}</style></defs><path class="cls-1" d="M29.06,14h-3.5V11.66a2.33,2.33,0,0,0-2.33-2.33h-7a2.33,2.33,0,0,0-2.34,2.33V14h-3.5a2.33,2.33,0,0,0-2.33,2.33V29.16a2.33,2.33,0,0,0,2.33,2.34H29.06a2.33,2.33,0,0,0,2.33-2.34V16.33A2.33,2.33,0,0,0,29.06,14ZM16.23,11.66h7V14h-7Zm12.83,17.5H10.39V26.83H29.06Zm0-5.83H10.39v-7h3.5v2.33h2.34V16.33h7v2.33h2.33V16.33h3.5Z" transform="translate(-8.06 -9.33)"/></svg>